<?xml version="1.0" standalone="no"?>
<!DOCTYPE svg PUBLIC "-//W3C//DTD SVG 20010904//EN"
 "http://www.w3.org/TR/2001/REC-SVG-20010904/DTD/svg10.dtd">
<svg version="1.0" xmlns="http://www.w3.org/2000/svg"
 width="500.000000pt" height="500.000000pt" viewBox="0 0 500.000000 500.000000"
 preserveAspectRatio="xMidYMid meet">

<g transform="translate(0.000000,500.000000) scale(0.100000,-0.100000)" stroke="none">
  
  <path fill="#2D5A27" d="M4310 3159 c-30 -15 -63 -28 -72 -29 -9 0 -27 -4 -40 -9 -13 -5 -48
  -16 -78 -25 -63 -19 -133 -58 -182 -101 -48 -45 -90 -103 -82 -117 4 -6 3 -8
  -3 -5 -12 8 -29 -26 -39 -80 -5 -21 -9 -41 -10 -45 -1 -5 -2 -17 -3 -28 0 -11
  -4 -20 -8 -20 -7 0 -96 133 -157 233 -16 26 -20 27 -97 27 -61 0 -80 -3 -76
  -13 2 -7 61 -97 130 -201 l125 -189 -116 -176 c-65 -97 -123 -182 -129 -189
  -25 -26 -12 -32 65 -32 l77 0 29 48 c63 103 149 232 155 232 3 0 49 -63 101
  -140 l95 -140 83 0 c64 0 81 3 76 13 -4 6 -45 65 -90 129 -204 287 -201 282
  -152 284 55 2 148 62 229 146 62 65 162 225 154 246 -2 7 -1 11 4 8 4 -3 13 9
  18 27 6 18 23 63 37 102 14 38 26 71 26 72 0 6 -18 -1 -70 -28z"/>

  <path fill="#71B340" d="M4250 3051 c0 -5 -24 -26 -52 -48 -78 -59 -219 -203 -212 -215 4 -6 2 -8 -3 -5 -9 6 -103
  -122 -103 -139 0 -3 -6 -12 -14 -19 -12 -12 -16 -12 -27 1 -10 12 -8 22 11 57
  58 105 171 221 308 315 97 68 92 65 92 53z"/>

  <path fill="#2D5A27" d="M3223 2954 c-20 -20 -24 -31 -19 -56 8 -42 22 -56 62 -64 55 -10 113
  41 99 87 -19 60 -96 78 -142 33z"/>
  <path fill="#2D5A27" d="M687 2953 c-4 -3 -7 -183 -7 -400 l0 -393 75 0 75 0 0 175 0 175 185
  0 185 0 0 -175 0 -175 75 0 75 0 0 400 0 401 -72 -3 -73 -3 -3 -165 -2 -165
  -183 1 -182 2 -3 166 -2 166 -69 0 c-37 0 -71 -3 -74 -7z"/>
  <path fill="#2D5A27" d="M2580 2560 l0 -400 70 0 70 0 0 33 1 32 18 -22 c87 -104 263 -76 345
  56 57 92 62 237 11 337 -68 132 -228 173 -329 84 -18 -17 -36 -30 -40 -30 -3
  0 -6 70 -6 155 l0 155 -70 0 -70 0 0 -400z m352 23 c41 -44 48 -67 48 -150 0
  -98 -25 -150 -83 -172 -93 -35 -177 43 -177 165 0 73 12 106 54 152 26 28 36
  32 81 32 43 0 55 -4 77 -27z"/>
  <path fill="#2D5A27" d="M1654 2712 c-129 -46 -196 -164 -180 -315 17 -163 126 -257 297 -257
  73 0 162 20 195 44 14 11 18 24 15 57 -1 24 -5 47 -7 51 -3 4 -26 -4 -53 -18
  -57 -28 -173 -34 -219 -10 -45 24 -102 103 -85 120 4 3 91 6 194 6 l189 0 6
  26 c16 63 -12 180 -56 237 -53 67 -195 96 -296 59z m154 -96 c40 -21 59 -46
  67 -88 l7 -38 -131 0 c-146 0 -146 0 -114 67 30 64 109 91 171 59z"/>
  <path fill="#2D5A27" d="M2372 2723 c-23 -5 -88 -62 -109 -98 -10 -17 -12 -12 -12 38 l-1 57
  -65 0 -65 0 0 -280 0 -280 70 0 70 0 0 143 c0 165 9 205 54 251 38 37 79 49
  124 37 29 -9 30 -8 41 32 20 77 18 90 -9 98 -28 8 -63 9 -98 2z"/>
  <path fill="#2D5A27" d="M3217 2713 c-3 -4 -4 -129 -3 -278 l1 -270 73 -3 72 -3 -2 278 -3
  278 -67 3 c-36 2 -68 -1 -71 -5z"/>

</g>
</svg>
